<svg xmlns="http://www.w3.org/2000/svg" viewBox="0 0 24 30" x="0px" y="0px"><g><path data-name="18-Favorite" d="M21.1426,7.8477c-.0332-.0137-.0947-.0391-5.0371-1.4766-.54-.8135-2.6377-3.9668-3.0557-4.4522a1.5174,1.5174,0,0,0-2.1367.0381c-.3838.45-2.479,3.6006-3.0186,4.4141C2.9521,7.8086,2.8906,7.834,2.8569,7.8486A1.4922,1.4922,0,0,0,1.94,9.2305a1.47,1.47,0,0,0,.2129.7627.5008.5008,0,0,0,.0616.1025l3.15,4.0781L5.21,19.29a1.5016,1.5016,0,0,0,1.5,1.5,1.47,1.47,0,0,0,.5581-.1093L12,18.9912l4.708,1.68a1.497,1.497,0,0,0,2.082-1.3965l-.1552-5.1006,3.15-4.0781a.1851.1851,0,0,0,.0175-.0244,1.478,1.478,0,0,0,.2569-.8408A1.4936,1.4936,0,0,0,21.1426,7.8477Zm-.16,1.6513-.02.0264-3.2275,4.1787a.5018.5018,0,0,0-.1045.3213l.16,5.2646a.4948.4948,0,0,1-.5.5.5676.5676,0,0,1-.2216-.0507l-4.9-1.75a.4963.4963,0,0,0-.336,0L6.9087,19.748a.4939.4939,0,0,1-.6987-.4423l.16-5.28a.5018.5018,0,0,0-.1045-.3213l-3.25-4.207A.4737.4737,0,0,1,2.94,9.2305a.4968.4968,0,0,1,.273-.4483C3.3745,8.73,6.373,7.8545,8.35,7.28a.5015.5015,0,0,0,.2774-.2041c1.0683-1.6133,2.7612-4.1348,3.01-4.4307a.5554.5554,0,0,1,.689-.0381c.2856.334,1.9785,2.8555,3.0468,4.4688A.5033.5033,0,0,0,15.65,7.28c1.9766.5742,4.9756,1.4492,5.1064,1.49a.5018.5018,0,0,1,.3028.46A.4585.4585,0,0,1,20.9824,9.499ZM10,12a1,1,0,1,1,1-1A1,1,0,0,1,10,12Zm5-1a1,1,0,1,1-1-1A1,1,0,0,1,15,11Zm-.5518,2.8135a.5.5,0,0,1-.2265.67,5.0346,5.0346,0,0,1-4.4429,0,.5.5,0,1,1,.4424-.8965,4.0514,4.0514,0,0,0,3.5571,0A.5016.5016,0,0,1,14.4482,13.8135Z"/></g><text x="0" y="39" fill="#000000" font-size="5px" font-weight="bold" font-family="'Helvetica Neue', Helvetica, Arial-Unicode, Arial, Sans-serif">Created by Muhammad Tajudin</text><text x="0" y="44" fill="#000000" font-size="5px" font-weight="bold" font-family="'Helvetica Neue', Helvetica, Arial-Unicode, Arial, Sans-serif">from the Noun Project</text></svg>